{
DisplayStrings = (
/unif100,
/unif101,
/unif100,
/unif104,
/unif105,
/unif108,
/unif109,
/unif111,
/unif129,
"",
/unif108,
/unif108
);
date = "2013-08-16 02:07:48 +0000";
designer = "Ben Dunkle";
familyName = "binteocons";
featurePrefixes = (
{
automatic = 1;
code = "languagesystem DFLT dflt;\012";
name = Languagesystems;
}
);
fontMaster = (
{
ascender = 2400;
capHeight = 2400;
descender = 0;
id = "E25C3135-82A9-4CDA-9926-8EBA41D4E51C";
xHeight = 1200;
}
);
glyphs = (
{
glyphname = unif100;
lastChange = "2013-08-16 15:11:40 +0000";
layers = (
{
layerId = "E25C3135-82A9-4CDA-9926-8EBA41D4E51C";
name = Regular;
paths = (
{
closed = 1;
nodes = (
"1909 1483 OFFCURVE",
"1636 1600 OFFCURVE",
"1417 1589 CURVE SMOOTH",
"1232 1580 OFFCURVE",
"1026 1424 OFFCURVE",
"994 1290 CURVE",
"1357 1410 OFFCURVE",
"1674 1179 OFFCURVE",
"1674 861 CURVE SMOOTH",
"1674 799 OFFCURVE",
"1663 740 OFFCURVE",
"1640 685 CURVE SMOOTH",
"1618 630 OFFCURVE",
"1587 583 OFFCURVE",
"1549 543 CURVE SMOOTH",
"1510 504 OFFCURVE",
"1465 472 OFFCURVE",
"1413 448 CURVE SMOOTH",
"1361 425 OFFCURVE",
"1306 413 OFFCURVE",
"1248 413 CURVE SMOOTH",
"1190 413 OFFCURVE",
"1136 425 OFFCURVE",
"1084 448 CURVE SMOOTH",
"1032 472 OFFCURVE",
"987 505 OFFCURVE",
"948 547 CURVE SMOOTH",
"939 557 OFFCURVE",
"931 567 OFFCURVE",
"922 578 CURVE",
"1367 887 LINE",
"823 1265 LINE",
"823 1952 LINE SMOOTH",
"823 2260 OFFCURVE",
"397 2400 OFFCURVE",
"397 2400 CURVE",
"397 874 LINE SMOOTH",
"397 754 OFFCURVE",
"418 640 OFFCURVE",
"460 534 CURVE SMOOTH",
"502 427 OFFCURVE",
"560 335 OFFCURVE",
"636 256 CURVE SMOOTH",
"711 178 OFFCURVE",
"801 116 OFFCURVE",
"905 69 CURVE SMOOTH",
"1009 23 OFFCURVE",
"1124 0 OFFCURVE",
"1248 0 CURVE SMOOTH",
"1373 0 OFFCURVE",
"1488 23 OFFCURVE",
"1594 69 CURVE SMOOTH",
"1699 116 OFFCURVE",
"1789 178 OFFCURVE",
"1863 256 CURVE SMOOTH",
"1937 335 OFFCURVE",
"1995 426 OFFCURVE",
"2037 531 CURVE SMOOTH",
"2079 635 OFFCURVE",
"2100 745 OFFCURVE",
"2100 861 CURVE SMOOTH",
"2100 977 OFFCURVE",
"2083 1088 OFFCURVE",
"2039 1188 CURVE"
);
}
);
width = 2400;
}
);
unicode = F100;
},
{
glyphname = unif101;
lastChange = "2013-08-16 15:11:21 +0000";
layers = (
{
layerId = "E25C3135-82A9-4CDA-9926-8EBA41D4E51C";
name = Regular;
paths = (
{
closed = 1;
nodes = (
"1703 975 LINE",
"1869 1262 OFFCURVE",
"1830 1635 OFFCURVE",
"1584 1880 CURVE SMOOTH",
"1290 2173 OFFCURVE",
"814 2173 OFFCURVE",
"520 1880 CURVE SMOOTH",
"227 1587 OFFCURVE",
"227 1112 OFFCURVE",
"520 819 CURVE SMOOTH",
"767 573 OFFCURVE",
"1142 535 OFFCURVE",
"1430 702 CURVE",
"1765 311 LINE SMOOTH",
"1846 217 OFFCURVE",
"1996 214 OFFCURVE",
"2094 311 CURVE SMOOTH",
"2192 409 OFFCURVE",
"2188 559 OFFCURVE",
"2094 640 CURVE"
);
},
{
closed = 1;
nodes = (
"1178 898 OFFCURVE",
"916 898 OFFCURVE",
"754 1060 CURVE SMOOTH",
"592 1222 OFFCURVE",
"592 1484 OFFCURVE",
"754 1646 CURVE SMOOTH",
"916 1808 OFFCURVE",
"1178 1808 OFFCURVE",
"1340 1646 CURVE SMOOTH",
"1502 1484 OFFCURVE",
"1502 1222 OFFCURVE",
"1340 1060 CURVE"
);
}
);
width = 2400;
}
);
unicode = F101;
},
{
glyphname = unif102;
lastChange = "2013-08-16 03:17:02 +0000";
layers = (
{
layerId = "E25C3135-82A9-4CDA-9926-8EBA41D4E51C";
name = Regular;
paths = (
{
closed = 1;
nodes = (
"1707 2033 LINE",
"2058 1687 LINE",
"2328 1954 LINE",
"1977 2300 LINE"
);
},
{
closed = 1;
nodes = (
"400 400 LINE",
"400 1600 LINE",
"1000 1600 LINE",
"1400 2000 LINE",
"400 2000 LINE SMOOTH",
"200 2000 OFFCURVE",
"0 1800 OFFCURVE",
"0 1600 CURVE SMOOTH",
"0 400 LINE SMOOTH",
"0 200 OFFCURVE",
"200 0 OFFCURVE",
"400 0 CURVE SMOOTH",
"1700 0 LINE SMOOTH",
"1900 0 OFFCURVE",
"2000 200 OFFCURVE",
"1994 430 CURVE",
"1994 1394 LINE",
"1600 1000 LINE",
"1600 400 LINE"
);
},
{
closed = 1;
nodes = (
"1119 760 LINE",
"1946 1577 LINE",
"1595 1923 LINE",
"796 1134 LINE",
"657 650 LINE"
);
}
);
width = 2400;
}
);
unicode = F102;
},
{
glyphname = unif103;
lastChange = "2013-08-16 11:58:22 +0000";
layers = (
{
layerId = "E25C3135-82A9-4CDA-9926-8EBA41D4E51C";
name = Regular;
paths = (
{
closed = 1;
nodes = (
"949 2109 OFFCURVE",
"426 2248 OFFCURVE",
"192 1854 CURVE SMOOTH",
"-186 1218 OFFCURVE",
"711 201 OFFCURVE",
"1201 201 CURVE SMOOTH",
"1692 201 OFFCURVE",
"2589 1218 OFFCURVE",
"2211 1854 CURVE SMOOTH",
"1977 2248 OFFCURVE",
"1454 2109 OFFCURVE",
"1201 1854 CURVE"
);
}
);
width = 2400;
}
);
unicode = F103;
},
{
glyphname = unif104;
lastChange = "2013-08-16 15:11:50 +0000";
layers = (
{
layerId = "E25C3135-82A9-4CDA-9926-8EBA41D4E51C";
name = Regular;
paths = (
{
closed = 1;
nodes = (
"1800 2200 LINE SMOOTH",
"1910 2200 OFFCURVE",
"2000 2110 OFFCURVE",
"2000 2000 CURVE SMOOTH",
"2000 300 LINE SMOOTH",
"2000 190 OFFCURVE",
"1910 100 OFFCURVE",
"1800 100 CURVE",
"1200 500 LINE",
"600 100 LINE",
"490 100 OFFCURVE",
"400 190 OFFCURVE",
"400 300 CURVE SMOOTH",
"400 2000 LINE SMOOTH",
"400 2110 OFFCURVE",
"490 2200 OFFCURVE",
"600 2200 CURVE"
);
}
);
width = 2400;
}
);
unicode = F104;
},
{
glyphname = unif105;
lastChange = "2013-08-16 15:12:06 +0000";
layers = (
{
layerId = "E25C3135-82A9-4CDA-9926-8EBA41D4E51C";
name = Regular;
paths = (
{
closed = 1;
nodes = (
"1724 1647 LINE SMOOTH",
"1724 2023 OFFCURVE",
"1416 2328 OFFCURVE",
"1035 2328 CURVE SMOOTH",
"690 2328 LINE SMOOTH",
"309 2328 OFFCURVE",
"0 2023 OFFCURVE",
"0 1647 CURVE SMOOTH",
"0 1476 LINE SMOOTH",
"0 1156 OFFCURVE",
"224 888 OFFCURVE",
"526 815 CURVE",
"483 480 OFFCURVE",
"272 357 OFFCURVE",
"428 357 CURVE SMOOTH",
"675 357 OFFCURVE",
"950 531 OFFCURVE",
"1121 801 CURVE",
"1461 843 OFFCURVE",
"1724 1129 OFFCURVE",
"1724 1476 CURVE"
);
},
{
closed = 1;
nodes = (
"2234 1477 OFFCURVE",
"1993 1507 OFFCURVE",
"1869 1492 CURVE",
"1886 1150 OFFCURVE",
"1740 785 OFFCURVE",
"1293 657 CURVE",
"1367 510 OFFCURVE",
"1500 423 OFFCURVE",
"1691 423 CURVE",
"1717 271 OFFCURVE",
"1954 100 OFFCURVE",
"2155 100 CURVE SMOOTH",
"2297 100 OFFCURVE",
"2030 231 OFFCURVE",
"2056 443 CURVE",
"2216 456 OFFCURVE",
"2269 522 OFFCURVE",
"2353 677 CURVE SMOOTH",
"2429 818 OFFCURVE",
"2411 1192 OFFCURVE",
"2314 1349 CURVE"
);
}
);
width = 2400;
}
);
unicode = F105;
},
{
glyphname = unif106;
lastChange = "2013-08-16 12:17:02 +0000";
layers = (
{
layerId = "E25C3135-82A9-4CDA-9926-8EBA41D4E51C";
name = Regular;
paths = (
{
closed = 1;
nodes = (
"1034 2400 OFFCURVE",
"900 2266 OFFCURVE",
"900 2100 CURVE SMOOTH",
"900 1934 OFFCURVE",
"1034 1800 OFFCURVE",
"1200 1800 CURVE SMOOTH",
"1366 1800 OFFCURVE",
"1500 1934 OFFCURVE",
"1500 2100 CURVE SMOOTH",
"1500 2266 OFFCURVE",
"1366 2400 OFFCURVE",
"1200 2400 CURVE"
);
},
{
closed = 1;
nodes = (
"1034 1500 OFFCURVE",
"900 1366 OFFCURVE",
"900 1200 CURVE SMOOTH",
"900 1034 OFFCURVE",
"1034 900 OFFCURVE",
"1200 900 CURVE SMOOTH",
"1366 900 OFFCURVE",
"1500 1034 OFFCURVE",
"1500 1200 CURVE SMOOTH",
"1500 1366 OFFCURVE",
"1366 1500 OFFCURVE",
"1200 1500 CURVE"
);
},
{
closed = 1;
nodes = (
"1034 600 OFFCURVE",
"900 466 OFFCURVE",
"900 300 CURVE SMOOTH",
"900 134 OFFCURVE",
"1034 0 OFFCURVE",
"1200 0 CURVE SMOOTH",
"1366 0 OFFCURVE",
"1500 134 OFFCURVE",
"1500 300 CURVE SMOOTH",
"1500 466 OFFCURVE",
"1366 600 OFFCURVE",
"1200 600 CURVE"
);
}
);
width = 2400;
}
);
unicode = F106;
},
{
glyphname = unif107;
lastChange = "2013-08-16 12:35:57 +0000";
layers = (
{
layerId = "E25C3135-82A9-4CDA-9926-8EBA41D4E51C";
name = Regular;
paths = (
{
closed = 1;
nodes = (
"675 955 LINE",
"327 607 LINE SMOOTH",
"256 536 OFFCURVE",
"142 536 OFFCURVE",
"71 607 CURVE SMOOTH",
"0 678 OFFCURVE",
"0 792 OFFCURVE",
"71 863 CURVE SMOOTH",
"621 1413 LINE",
"1304 997 LINE",
"2070 1791 LINE SMOOTH",
"2139 1863 OFFCURVE",
"2254 1864 OFFCURVE",
"2326 1795 CURVE SMOOTH",
"2398 1726 OFFCURVE",
"2400 1611 OFFCURVE",
"2330 1539 CURVE SMOOTH",
"1363 536 LINE"
);
}
);
width = 2400;
}
);
unicode = F107;
},
{
glyphname = unif108;
lastChange = "2013-08-16 15:40:34 +0000";
layers = (
{
layerId = "E25C3135-82A9-4CDA-9926-8EBA41D4E51C";
name = Regular;
paths = (
{
closed = 1;
nodes = (
"2200 1900 OFFCURVE",
"1718 1900 OFFCURVE",
"1182 1900 CURVE SMOOTH",
"1053 1900 OFFCURVE",
"926 2200 OFFCURVE",
"811 2200 CURVE SMOOTH",
"518 2200 OFFCURVE",
"300 2200 OFFCURVE",
"300 2200 CURVE SMOOTH",
"190 2200 OFFCURVE",
"100 2110 OFFCURVE",
"100 2000 CURVE SMOOTH",
"100 600 LINE SMOOTH",
"100 490 OFFCURVE",
"190 400 OFFCURVE",
"300 400 CURVE SMOOTH",
"2200 400 LINE SMOOTH",
"2310 400 OFFCURVE",
"2400 490 OFFCURVE",
"2400 600 CURVE SMOOTH",
"2400 1700 LINE SMOOTH",
"2400 1810 OFFCURVE",
"2310 1900 OFFCURVE",
"2200 1900 CURVE"
);
},
{
closed = 1;
nodes = (
"2133 1600 OFFCURVE",
"2200 1533 OFFCURVE",
"2200 1450 CURVE SMOOTH",
"2200 1367 OFFCURVE",
"2133 1300 OFFCURVE",
"2050 1300 CURVE",
"700 1300 LINE",
"700 750 LINE SMOOTH",
"700 667 OFFCURVE",
"633 600 OFFCURVE",
"550 600 CURVE SMOOTH",
"467 600 OFFCURVE",
"400 667 OFFCURVE",
"400 750 CURVE SMOOTH",
"400 1450 LINE SMOOTH",
"400 1533 OFFCURVE",
"467 1600 OFFCURVE",
"550 1600 CURVE SMOOTH",
"2050 1600 LINE SMOOTH"
);
}
);
width = 2400;
}
);
unicode = F108;
},
{
glyphname = unif109;
lastChange = "2013-08-16 15:12:33 +0000";
layers = (
{
layerId = "E25C3135-82A9-4CDA-9926-8EBA41D4E51C";
name = Regular;
paths = (
{
closed = 1;
nodes = (
"1150 800 LINE",
"757 1262 LINE",
"434 1159 OFFCURVE",
"200 857 OFFCURVE",
"200 500 CURVE SMOOTH",
"200 409 LINE",
"455 279 OFFCURVE",
"786 200 OFFCURVE",
"1150 200 CURVE SMOOTH",
"1514 200 OFFCURVE",
"1845 279 OFFCURVE",
"2100 409 CURVE",
"2100 500 LINE SMOOTH",
"2100 857 OFFCURVE",
"1866 1159 OFFCURVE",
"1543 1262 CURVE"
);
},
{
closed = 1;
nodes = (
"1371 1298 OFFCURVE",
"1551 1478 OFFCURVE",
"1551 1699 CURVE SMOOTH",
"1551 1877 LINE SMOOTH",
"1551 2099 OFFCURVE",
"1371 2279 OFFCURVE",
"1150 2279 CURVE SMOOTH",
"928 2279 OFFCURVE",
"749 2099 OFFCURVE",
"749 1877 CURVE SMOOTH",
"749 1699 LINE SMOOTH",
"749 1478 OFFCURVE",
"928 1298 OFFCURVE",
"1150 1298 CURVE"
);
}
);
width = 2400;
}
);
unicode = F109;
},
{
glyphname = unif110;
lastChange = "2013-08-16 12:41:22 +0000";
layers = (
{
layerId = "E25C3135-82A9-4CDA-9926-8EBA41D4E51C";
name = Regular;
paths = (
{
closed = 1;
nodes = (
"2211 1900 OFFCURVE",
"2300 1810 OFFCURVE",
"2300 1700 CURVE SMOOTH",
"2300 600 LINE SMOOTH",
"2300 489 OFFCURVE",
"2211 400 OFFCURVE",
"2100 400 CURVE SMOOTH",
"300 400 LINE SMOOTH",
"190 400 OFFCURVE",
"100 489 OFFCURVE",
"100 600 CURVE SMOOTH",
"100 1700 LINE SMOOTH",
"100 1810 OFFCURVE",
"190 1900 OFFCURVE",
"300 1900 CURVE SMOOTH",
"2100 1900 LINE"
);
},
{
closed = 1;
nodes = (
"1597 1360 OFFCURVE",
"1200 1100 OFFCURVE",
"1200 1100 CURVE SMOOTH",
"1200 1100 OFFCURVE",
"797 1376 OFFCURVE",
"528 1545 CURVE SMOOTH",
"394 1629 OFFCURVE",
"158 1449 OFFCURVE",
"419 1271 CURVE SMOOTH",
"661 1106 OFFCURVE",
"1200 750 OFFCURVE",
"1200 750 CURVE SMOOTH",
"1200 750 OFFCURVE",
"1723 1104 OFFCURVE",
"1974 1265 CURVE SMOOTH",
"2228 1428 OFFCURVE",
"2001 1641 OFFCURVE",
"1857 1541 CURVE"
);
}
);
width = 2407;
}
);
unicode = F110;
},
{
glyphname = unif111;
lastChange = "2013-08-16 15:12:50 +0000";
layers = (
{
layerId = "E25C3135-82A9-4CDA-9926-8EBA41D4E51C";
name = Regular;
paths = (
{
closed = 1;
nodes = (
"648 2200 OFFCURVE",
"200 1752 OFFCURVE",
"200 1200 CURVE SMOOTH",
"200 648 OFFCURVE",
"648 200 OFFCURVE",
"1200 200 CURVE SMOOTH",
"1752 200 OFFCURVE",
"2200 648 OFFCURVE",
"2200 1200 CURVE SMOOTH",
"2200 1752 OFFCURVE",
"1752 2200 OFFCURVE",
"1200 2200 CURVE"
);
},
{
closed = 1;
nodes = (
"1239 397 OFFCURVE",
"1161 452 OFFCURVE",
"1148 534 CURVE SMOOTH",
"1134 615 OFFCURVE",
"1189 693 OFFCURVE",
"1270 707 CURVE SMOOTH",
"1352 721 OFFCURVE",
"1429 666 OFFCURVE",
"1443 584 CURVE SMOOTH",
"1457 502 OFFCURVE",
"1402 425 OFFCURVE",
"1321 411 CURVE"
);
},
{
closed = 1;
nodes = (
"1331 1283 OFFCURVE",
"1401 1382 OFFCURVE",
"1383 1487 CURVE SMOOTH",
"1365 1591 OFFCURVE",
"1267 1656 OFFCURVE",
"1162 1644 CURVE SMOOTH",
"1017 1628 OFFCURVE",
"1002 1456 OFFCURVE",
"1002 1456 CURVE",
"984 1375 OFFCURVE",
"910 1340 OFFCURVE",
"839 1352 CURVE SMOOTH",
"760 1365 OFFCURVE",
"704 1415 OFFCURVE",
"695 1484 CURVE",
"709 1711 OFFCURVE",
"876 1908 OFFCURVE",
"1110 1948 CURVE SMOOTH",
"1382 1994 OFFCURVE",
"1641 1811 OFFCURVE",
"1687 1538 CURVE SMOOTH",
"1728 1300 OFFCURVE",
"1592 1108 OFFCURVE",
"1375 1024 CURVE",
"1376 978 LINE SMOOTH",
"1378 896 OFFCURVE",
"1335 819 OFFCURVE",
"1254 805 CURVE SMOOTH",
"1172 791 OFFCURVE",
"1094 846 OFFCURVE",
"1080 928 CURVE SMOOTH",
"1055 1076 LINE SMOOTH",
"1044 1140 OFFCURVE",
"1077 1201 OFFCURVE",
"1130 1232 CURVE",
"1226 1265 LINE"
);
}
);
width = 2400;
}
);
unicode = F111;
},
{
glyphname = unif112;
lastChange = "2013-08-16 15:13:11 +0000";
layers = (
{
layerId = "E25C3135-82A9-4CDA-9926-8EBA41D4E51C";
name = Regular;
paths = (
{
closed = 1;
nodes = (
"1495 2171 LINE SMOOTH",
"1456 2210 OFFCURVE",
"1393 2210 OFFCURVE",
"1354 2171 CURVE SMOOTH",
"100 869 LINE",
"100 69 LINE",
"900 69 LINE",
"2202 1322 LINE SMOOTH",
"2241 1361 OFFCURVE",
"2241 1425 OFFCURVE",
"2202 1464 CURVE"
);
},
{
closed = 1;
nodes = (
"795 608 OFFCURVE",
"795 481 OFFCURVE",
"717 403 CURVE SMOOTH",
"639 325 OFFCURVE",
"512 325 OFFCURVE",
"434 403 CURVE SMOOTH",
"356 481 OFFCURVE",
"356 608 OFFCURVE",
"434 686 CURVE SMOOTH",
"512 764 OFFCURVE",
"639 764 OFFCURVE",
"717 686 CURVE"
);
}
);
width = 2400;
}
);
unicode = F112;
},
{
glyphname = unif113;
lastChange = "2013-08-16 15:13:32 +0000";
layers = (
{
layerId = "E25C3135-82A9-4CDA-9926-8EBA41D4E51C";
name = Regular;
paths = (
{
closed = 1;
nodes = (
"2034 1628 OFFCURVE",
"1987 1574 OFFCURVE",
"1937 1518 CURVE",
"2091 1459 OFFCURVE",
"2201 1311 OFFCURVE",
"2201 1136 CURVE SMOOTH",
"2201 910 OFFCURVE",
"2018 726 OFFCURVE",
"1792 726 CURVE SMOOTH",
"1626 726 OFFCURVE",
"1483 825 OFFCURVE",
"1419 968 CURVE",
"1419 958 OFFCURVE",
"1419 949 OFFCURVE",
"1419 939 CURVE SMOOTH",
"1419 708 OFFCURVE",
"1330 508 OFFCURVE",
"1200 413 CURVE",
"1070 508 OFFCURVE",
"981 708 OFFCURVE",
"981 939 CURVE SMOOTH",
"981 949 OFFCURVE",
"981 958 OFFCURVE",
"981 968 CURVE",
"917 825 OFFCURVE",
"774 726 OFFCURVE",
"608 726 CURVE SMOOTH",
"382 726 OFFCURVE",
"199 910 OFFCURVE",
"199 1136 CURVE SMOOTH",
"199 1311 OFFCURVE",
"309 1459 OFFCURVE",
"463 1518 CURVE",
"413 1574 OFFCURVE",
"366 1628 OFFCURVE",
"324 1681 CURVE",
"128 1545 OFFCURVE",
"0 1318 OFFCURVE",
"0 1062 CURVE SMOOTH",
"0 646 OFFCURVE",
"337 308 OFFCURVE",
"754 308 CURVE SMOOTH",
"994 308 LINE",
"1051 209 OFFCURVE",
"1121 128 OFFCURVE",
"1200 70 CURVE",
"1279 128 OFFCURVE",
"1349 209 OFFCURVE",
"1406 308 CURVE",
"1646 308 LINE SMOOTH",
"2063 308 OFFCURVE",
"2400 646 OFFCURVE",
"2400 1062 CURVE SMOOTH",
"2400 1318 OFFCURVE",
"2272 1545 OFFCURVE",
"2076 1681 CURVE"
);
},
{
closed = 1;
nodes = (
"444 1383 OFFCURVE",
"343 1271 OFFCURVE",
"343 1136 CURVE SMOOTH",
"343 989 OFFCURVE",
"462 870 OFFCURVE",
"608 870 CURVE SMOOTH",
"749 870 OFFCURVE",
"864 980 OFFCURVE",
"873 1119 CURVE",
"769 1210 OFFCURVE",
"668 1304 OFFCURVE",
"576 1399 CURVE"
);
},
{
closed = 1;
nodes = (
"1536 980 OFFCURVE",
"1651 870 OFFCURVE",
"1792 870 CURVE SMOOTH",
"1938 870 OFFCURVE",
"2057 989 OFFCURVE",
"2057 1136 CURVE SMOOTH",
"2057 1271 OFFCURVE",
"1956 1383 OFFCURVE",
"1824 1399 CURVE",
"1732 1304 OFFCURVE",
"1631 1210 OFFCURVE",
"1527 1119 CURVE"
);
},
{
closed = 1;
nodes = (
"823 1926 OFFCURVE",
"373 2033 OFFCURVE",
"102 2180 CURVE",
"120 2082 OFFCURVE",
"202 1945 OFFCURVE",
"324 1791 CURVE SMOOTH",
"539 1522 OFFCURVE",
"876 1203 OFFCURVE",
"1200 968 CURVE",
"1524 1203 OFFCURVE",
"1861 1522 OFFCURVE",
"2076 1791 CURVE SMOOTH",
"2197 1945 OFFCURVE",
"2280 2082 OFFCURVE",
"2298 2180 CURVE",
"2027 2033 OFFCURVE",
"1577 1926 OFFCURVE",
"1200 1926 CURVE"
);
}
);
width = 2400;
}
);
unicode = F113;
},
{
glyphname = unif114;
lastChange = "2013-08-16 13:29:29 +0000";
layers = (
{
layerId = "E25C3135-82A9-4CDA-9926-8EBA41D4E51C";
name = Regular;
paths = (
{
closed = 1;
nodes = (
"2100 600 LINE",
"2400 1600 LINE",
"900 1600 LINE",
"800 1900 LINE",
"772 2010 OFFCURVE",
"711 2100 OFFCURVE",
"600 2100 CURVE SMOOTH",
"200 2100 LINE SMOOTH",
"90 2100 OFFCURVE",
"0 2010 OFFCURVE",
"0 1900 CURVE SMOOTH",
"0 1790 OFFCURVE",
"90 1700 OFFCURVE",
"200 1700 CURVE SMOOTH",
"467 1700 LINE",
"500 1600 LINE",
"800 600 LINE"
);
},
{
closed = 1;
nodes = (
"1812 500 OFFCURVE",
"1700 388 OFFCURVE",
"1700 250 CURVE SMOOTH",
"1700 112 OFFCURVE",
"1812 0 OFFCURVE",
"1950 0 CURVE SMOOTH",
"2088 0 OFFCURVE",
"2200 112 OFFCURVE",
"2200 250 CURVE SMOOTH",
"2200 388 OFFCURVE",
"2088 500 OFFCURVE",
"1950 500 CURVE SMOOTH"
);
},
{
closed = 1;
nodes = (
"812 500 OFFCURVE",
"700 388 OFFCURVE",
"700 250 CURVE SMOOTH",
"700 112 OFFCURVE",
"812 0 OFFCURVE",
"950 0 CURVE SMOOTH",
"1088 0 OFFCURVE",
"1200 112 OFFCURVE",
"1200 250 CURVE SMOOTH",
"1200 388 OFFCURVE",
"1088 500 OFFCURVE",
"950 500 CURVE SMOOTH"
);
}
);
width = 2400;
}
);
unicode = F114;
},
{
glyphname = unif115;
lastChange = "2013-08-16 13:32:54 +0000";
layers = (
{
layerId = "E25C3135-82A9-4CDA-9926-8EBA41D4E51C";
name = Regular;
paths = (
{
closed = 1;
nodes = (
"1500 1500 LINE",
"1500 2000 LINE SMOOTH",
"1500 2165 OFFCURVE",
"1365 2300 OFFCURVE",
"1200 2300 CURVE SMOOTH",
"1034 2300 OFFCURVE",
"900 2165 OFFCURVE",
"900 2000 CURVE SMOOTH",
"900 1500 LINE",
"400 1500 LINE SMOOTH",
"234 1500 OFFCURVE",
"100 1365 OFFCURVE",
"100 1200 CURVE SMOOTH",
"100 1034 OFFCURVE",
"234 900 OFFCURVE",
"400 900 CURVE SMOOTH",
"900 900 LINE",
"900 400 LINE SMOOTH",
"900 234 OFFCURVE",
"1034 100 OFFCURVE",
"1200 100 CURVE SMOOTH",
"1365 100 OFFCURVE",
"1500 234 OFFCURVE",
"1500 400 CURVE SMOOTH",
"1500 900 LINE",
"2000 900 LINE SMOOTH",
"2165 900 OFFCURVE",
"2300 1034 OFFCURVE",
"2300 1200 CURVE SMOOTH",
"2300 1365 OFFCURVE",
"2165 1500 OFFCURVE",
"2000 1500 CURVE"
);
}
);
width = 2400;
}
);
unicode = F115;
},
{
glyphname = unif116;
lastChange = "2013-08-16 13:37:31 +0000";
layers = (
{
layerId = "E25C3135-82A9-4CDA-9926-8EBA41D4E51C";
name = Regular;
paths = (
{
closed = 1;
nodes = (
"2124 2000 OFFCURVE",
"1934 2000 OFFCURVE",
"1817 1882 CURVE SMOOTH",
"896 962 LINE",
"542 1316 LINE SMOOTH",
"425 1433 OFFCURVE",
"235 1433 OFFCURVE",
"118 1316 CURVE SMOOTH",
"0 1199 OFFCURVE",
"0 1008 OFFCURVE",
"118 891 CURVE SMOOTH",
"684 325 LINE SMOOTH",
"801 207 OFFCURVE",
"991 207 OFFCURVE",
"1109 325 CURVE SMOOTH",
"2242 1458 LINE SMOOTH",
"2359 1575 OFFCURVE",
"2359 1765 OFFCURVE",
"2242 1882 CURVE"
);
}
);
width = 2400;
}
);
unicode = F116;
},
{
glyphname = unif117;
lastChange = "2013-08-16 14:10:42 +0000";
layers = (
{
layerId = "E25C3135-82A9-4CDA-9926-8EBA41D4E51C";
name = Regular;
paths = (
{
closed = 1;
nodes = (
"1555 786 LINE",
"1206 1197 LINE",
"919 1105 OFFCURVE",
"711 837 OFFCURVE",
"711 519 CURVE SMOOTH",
"711 438 LINE",
"937 323 OFFCURVE",
"1232 253 OFFCURVE",
"1555 253 CURVE SMOOTH",
"1878 253 OFFCURVE",
"2173 323 OFFCURVE",
"2400 438 CURVE",
"2400 519 LINE SMOOTH",
"2400 837 OFFCURVE",
"2192 1105 OFFCURVE",
"1904 1197 CURVE"
);
},
{
closed = 1;
nodes = (
"1754 1245 OFFCURVE",
"1911 1401 OFFCURVE",
"1911 1595 CURVE SMOOTH",
"1911 1750 LINE SMOOTH",
"1911 1944 OFFCURVE",
"1754 2100 OFFCURVE",
"1561 2100 CURVE SMOOTH",
"1367 2100 OFFCURVE",
"1211 1944 OFFCURVE",
"1211 1750 CURVE",
"1211 1595 LINE SMOOTH",
"1211 1401 OFFCURVE",
"1367 1245 OFFCURVE",
"1561 1245 CURVE SMOOTH"
);
},
{
closed = 1;
nodes = (
"400 1953 LINE",
"400 1653 LINE",
"0 1653 LINE",
"0 1153 LINE",
"400 1153 LINE",
"400 853 LINE",
"600 1036 OFFCURVE",
"800 1220 OFFCURVE",
"1000 1403 CURVE"
);
}
);
width = 2400;
}
);
unicode = F117;
},
{
glyphname = unif118;
lastChange = "2013-08-16 14:09:42 +0000";
layers = (
{
layerId = "E25C3135-82A9-4CDA-9926-8EBA41D4E51C";
name = Regular;
paths = (
{
closed = 1;
nodes = (
"844 786 LINE",
"495 1197 LINE",
"208 1105 OFFCURVE",
"0 837 OFFCURVE",
"0 519 CURVE SMOOTH",
"0 438 LINE",
"226 323 OFFCURVE",
"521 253 OFFCURVE",
"844 253 CURVE SMOOTH",
"1167 253 OFFCURVE",
"1462 323 OFFCURVE",
"1689 438 CURVE",
"1689 519 LINE SMOOTH",
"1689 837 OFFCURVE",
"1481 1105 OFFCURVE",
"1193 1197 CURVE"
);
},
{
closed = 1;
nodes = (
"1043 1245 OFFCURVE",
"1200 1401 OFFCURVE",
"1200 1595 CURVE SMOOTH",
"1200 1750 LINE SMOOTH",
"1200 1944 OFFCURVE",
"1043 2100 OFFCURVE",
"850 2100 CURVE SMOOTH",
"656 2100 OFFCURVE",
"500 1944 OFFCURVE",
"500 1750 CURVE SMOOTH",
"500 1595 LINE SMOOTH",
"500 1401 OFFCURVE",
"656 1245 OFFCURVE",
"850 1245 CURVE SMOOTH"
);
},
{
closed = 1;
nodes = (
"1800 1953 LINE",
"1800 1653 LINE",
"1400 1653 LINE",
"1400 1153 LINE",
"1800 1153 LINE",
"1800 853 LINE",
"2400 1403 LINE"
);
}
);
width = 2400;
}
);
unicode = F118;
},
{
glyphname = unif119;
lastChange = "2013-08-16 14:14:15 +0000";
layers = (
{
layerId = "E25C3135-82A9-4CDA-9926-8EBA41D4E51C";
name = Regular;
paths = (
{
closed = 1;
nodes = (
"1744 949 LINE",
"1568 772 LINE SMOOTH",
"1470 674 OFFCURVE",
"1313 674 OFFCURVE",
"1216 772 CURVE SMOOTH",
"776 1215 LINE SMOOTH",
"679 1313 OFFCURVE",
"679 1471 OFFCURVE",
"776 1569 CURVE SMOOTH",
"952 1746 LINE",
"512 2189 LINE",
"448 2124 OFFCURVE",
"380 2056 OFFCURVE",
"336 2012 CURVE SMOOTH",
"20 1694 OFFCURVE",
"231 1055 OFFCURVE",
"644 639 CURVE SMOOTH",
"1057 224 OFFCURVE",
"1692 12 OFFCURVE",
"2008 329 CURVE SMOOTH",
"2184 507 LINE"
);
}
);
width = 2400;
}
);
unicode = F119;
},
{
glyphname = unif120;
lastChange = "2013-08-16 15:14:06 +0000";
layers = (
{
layerId = "E25C3135-82A9-4CDA-9926-8EBA41D4E51C";
name = Regular;
paths = (
{
closed = 1;
nodes = (
"2200 963 OFFCURVE",
"1876 613 OFFCURVE",
"1466 584 CURVE",
"1369 372 OFFCURVE",
"1230 245 OFFCURVE",
"1169 210 CURVE SMOOTH",
"1063 149 OFFCURVE",
"789 58 OFFCURVE",
"590 111 CURVE",
"714 136 OFFCURVE",
"854 332 OFFCURVE",
"884 582 CURVE",
"451 584 OFFCURVE",
"100 945 OFFCURVE",
"100 1391 CURVE SMOOTH",
"100 1838 OFFCURVE",
"453 2200 OFFCURVE",
"888 2200 CURVE SMOOTH",
"1413 2200 LINE SMOOTH",
"1848 2200 OFFCURVE",
"2200 1838 OFFCURVE",
"2200 1391 CURVE"
);
}
);
width = 2400;
}
);
unicode = F120;
},
{
glyphname = unif121;
lastChange = "2013-08-16 14:16:50 +0000";
layers = (
{
layerId = "E25C3135-82A9-4CDA-9926-8EBA41D4E51C";
name = Regular;
paths = (
{
closed = 1;
nodes = (
"924 1850 OFFCURVE",
"700 1721 OFFCURVE",
"700 1362 CURVE SMOOTH",
"700 1003 OFFCURVE",
"1200 550 OFFCURVE",
"1200 550 CURVE SMOOTH",
"1200 550 OFFCURVE",
"1700 1003 OFFCURVE",
"1700 1362 CURVE SMOOTH",
"1700 1721 OFFCURVE",
"1477 1850 OFFCURVE",
"1200 1850 CURVE"
);
},
{
closed = 1;
nodes = (
"1339 1687 OFFCURVE",
"1450 1578 OFFCURVE",
"1450 1443 CURVE SMOOTH",
"1450 1309 OFFCURVE",
"1339 1200 OFFCURVE",
"1200 1200 CURVE",
"1062 1200 OFFCURVE",
"950 1309 OFFCURVE",
"950 1443 CURVE SMOOTH",
"950 1578 OFFCURVE",
"1062 1687 OFFCURVE",
"1200 1687 CURVE"
);
}
);
width = 2400;
}
);
unicode = F121;
},
{
glyphname = unif122;
lastChange = "2013-08-16 14:18:04 +0000";
layers = (
{
layerId = "E25C3135-82A9-4CDA-9926-8EBA41D4E51C";
name = Regular;
paths = (
{
closed = 1;
nodes = (
"1044 786 LINE",
"695 1197 LINE",
"408 1105 OFFCURVE",
"200 837 OFFCURVE",
"200 519 CURVE SMOOTH",
"200 438 LINE",
"426 323 OFFCURVE",
"721 253 OFFCURVE",
"1044 253 CURVE SMOOTH",
"1367 253 OFFCURVE",
"1662 323 OFFCURVE",
"1889 438 CURVE",
"1889 519 LINE SMOOTH",
"1889 837 OFFCURVE",
"1681 1105 OFFCURVE",
"1393 1197 CURVE"
);
},
{
closed = 1;
nodes = (
"1243 1245 OFFCURVE",
"1400 1401 OFFCURVE",
"1400 1595 CURVE SMOOTH",
"1400 1750 LINE SMOOTH",
"1400 1944 OFFCURVE",
"1243 2100 OFFCURVE",
"1050 2100 CURVE SMOOTH",
"856 2100 OFFCURVE",
"700 1944 OFFCURVE",
"700 1750 CURVE SMOOTH",
"700 1595 LINE SMOOTH",
"700 1401 OFFCURVE",
"856 1245 OFFCURVE",
"1050 1245 CURVE SMOOTH"
);
},
{
closed = 1;
nodes = (
"1600 1300 LINE",
"2159 1300 LINE",
"2159 1500 LINE",
"1600 1500 LINE"
);
}
);
width = 2400;
}
);
unicode = F122;
},
{
glyphname = unif123;
lastChange = "2013-08-16 14:19:28 +0000";
layers = (
{
layerId = "E25C3135-82A9-4CDA-9926-8EBA41D4E51C";
name = Regular;
paths = (
{
closed = 1;
nodes = (
"1044 786 LINE",
"695 1197 LINE",
"408 1105 OFFCURVE",
"200 837 OFFCURVE",
"200 519 CURVE SMOOTH",
"200 438 LINE",
"426 323 OFFCURVE",
"721 253 OFFCURVE",
"1044 253 CURVE SMOOTH",
"1367 253 OFFCURVE",
"1662 323 OFFCURVE",
"1889 438 CURVE",
"1889 519 LINE SMOOTH",
"1889 837 OFFCURVE",
"1681 1105 OFFCURVE",
"1393 1197 CURVE"
);
},
{
closed = 1;
nodes = (
"1243 1245 OFFCURVE",
"1400 1401 OFFCURVE",
"1400 1595 CURVE SMOOTH",
"1400 1750 LINE SMOOTH",
"1400 1944 OFFCURVE",
"1243 2100 OFFCURVE",
"1050 2100 CURVE SMOOTH",
"856 2100 OFFCURVE",
"700 1944 OFFCURVE",
"700 1750 CURVE SMOOTH",
"700 1595 LINE SMOOTH",
"700 1401 OFFCURVE",
"856 1245 OFFCURVE",
"1050 1245 CURVE SMOOTH"
);
},
{
closed = 1;
nodes = (
"1600 1300 LINE",
"2200 1300 LINE",
"2200 1367 OFFCURVE",
"2200 1433 OFFCURVE",
"2200 1500 CURVE",
"2000 1500 OFFCURVE",
"1800 1500 OFFCURVE",
"1600 1500 CURVE"
);
},
{
closed = 1;
nodes = (
"1800 1100 LINE",
"2000 1100 LINE",
"2000 1700 LINE",
"1800 1700 LINE"
);
}
);
width = 2400;
}
);
unicode = F123;
},
{
glyphname = unif124;
lastChange = "2013-08-16 14:21:35 +0000";
layers = (
{
layerId = "E25C3135-82A9-4CDA-9926-8EBA41D4E51C";
name = Regular;
paths = (
{
closed = 1;
nodes = (
"2213 1779 OFFCURVE",
"1531 1872 OFFCURVE",
"1200 1885 CURVE",
"1200 2081 LINE SMOOTH",
"1200 2200 OFFCURVE",
"1080 2200 OFFCURVE",
"978 2130 CURVE",
"732 1919 OFFCURVE",
"100 1463 OFFCURVE",
"100 1463 CURVE SMOOTH",
"100 1463 OFFCURVE",
"760 1059 OFFCURVE",
"1006 848 CURVE",
"1080 802 OFFCURVE",
"1200 802 OFFCURVE",
"1200 923 CURVE SMOOTH",
"1200 1169 LINE",
"1551 1150 OFFCURVE",
"1714 1034 OFFCURVE",
"1714 712 CURVE SMOOTH",
"1714 412 OFFCURVE",
"1429 297 OFFCURVE",
"1372 297 CURVE SMOOTH",
"1253 297 OFFCURVE",
"1216 152 OFFCURVE",
"1372 102 CURVE SMOOTH",
"1752 -20 OFFCURVE",
"2329 288 OFFCURVE",
"2270 1054 CURVE"
);
}
);
width = 2400;
}
);
unicode = F124;
},
{
glyphname = unif125;
lastChange = "2013-08-16 14:22:52 +0000";
layers = (
{
layerId = "E25C3135-82A9-4CDA-9926-8EBA41D4E51C";
name = Regular;
paths = (
{
closed = 1;
nodes = (
"900 1900 LINE",
"900 2010 OFFCURVE",
"910 2100 OFFCURVE",
"800 2100 CURVE SMOOTH",
"500 2100 LINE SMOOTH",
"389 2100 OFFCURVE",
"400 2010 OFFCURVE",
"400 1900 CURVE",
"300 1900 LINE SMOOTH",
"189 1900 OFFCURVE",
"100 1810 OFFCURVE",
"100 1700 CURVE SMOOTH",
"100 500 LINE SMOOTH",
"100 389 OFFCURVE",
"189 300 OFFCURVE",
"300 300 CURVE SMOOTH",
"2100 300 LINE SMOOTH",
"2210 300 OFFCURVE",
"2300 389 OFFCURVE",
"2300 500 CURVE SMOOTH",
"2300 1700 LINE SMOOTH",
"2300 1810 OFFCURVE",
"2210 1900 OFFCURVE",
"2100 1900 CURVE"
);
},
{
closed = 1;
nodes = (
"923 600 OFFCURVE",
"700 824 OFFCURVE",
"700 1100 CURVE SMOOTH",
"700 1376 OFFCURVE",
"923 1600 OFFCURVE",
"1200 1600 CURVE SMOOTH",
"1476 1600 OFFCURVE",
"1700 1376 OFFCURVE",
"1700 1100 CURVE SMOOTH",
"1700 824 OFFCURVE",
"1476 600 OFFCURVE",
"1200 600 CURVE"
);
},
{
closed = 1;
nodes = (
"1034 1400 OFFCURVE",
"900 1265 OFFCURVE",
"900 1100 CURVE SMOOTH",
"900 934 OFFCURVE",
"1034 800 OFFCURVE",
"1200 800 CURVE SMOOTH",
"1365 800 OFFCURVE",
"1500 934 OFFCURVE",
"1500 1100 CURVE SMOOTH",
"1500 1265 OFFCURVE",
"1365 1400 OFFCURVE",
"1200 1400 CURVE"
);
}
);
width = 2400;
}
);
unicode = F125;
},
{
glyphname = unif126;
lastChange = "2013-08-16 14:23:38 +0000";
layers = (
{
layerId = "E25C3135-82A9-4CDA-9926-8EBA41D4E51C";
name = Regular;
paths = (
{
closed = 1;
nodes = (
"89 1900 OFFCURVE",
"0 1810 OFFCURVE",
"0 1700 CURVE SMOOTH",
"0 700 LINE SMOOTH",
"0 590 OFFCURVE",
"89 500 OFFCURVE",
"200 500 CURVE SMOOTH",
"1600 500 LINE",
"1600 1900 LINE",
"200 1900 LINE"
);
},
{
closed = 1;
nodes = (
"1800 900 LINE",
"2400 500 LINE",
"2400 1900 LINE",
"1800 1500 LINE"
);
}
);
width = 2400;
}
);
unicode = F126;
},
{
glyphname = unif127;
lastChange = "2013-08-16 14:24:57 +0000";
layers = (
{
layerId = "E25C3135-82A9-4CDA-9926-8EBA41D4E51C";
name = Regular;
paths = (
{
closed = 1;
nodes = (
"1824 1457 LINE SMOOTH",
"1925 1558 OFFCURVE",
"1925 1723 OFFCURVE",
"1824 1824 CURVE SMOOTH",
"1723 1925 OFFCURVE",
"1558 1925 OFFCURVE",
"1457 1824 CURVE SMOOTH",
"1200 1567 LINE",
"943 1824 LINE SMOOTH",
"842 1925 OFFCURVE",
"677 1925 OFFCURVE",
"576 1824 CURVE SMOOTH",
"475 1723 OFFCURVE",
"475 1558 OFFCURVE",
"576 1457 CURVE SMOOTH",
"833 1200 LINE",
"576 943 LINE SMOOTH",
"475 842 OFFCURVE",
"475 677 OFFCURVE",
"576 576 CURVE SMOOTH",
"677 475 OFFCURVE",
"842 475 OFFCURVE",
"943 576 CURVE SMOOTH",
"1200 833 LINE",
"1457 576 LINE SMOOTH",
"1558 475 OFFCURVE",
"1723 475 OFFCURVE",
"1824 576 CURVE SMOOTH",
"1925 677 OFFCURVE",
"1925 842 OFFCURVE",
"1824 943 CURVE SMOOTH",
"1567 1200 LINE"
);
}
);
width = 2400;
}
);
unicode = F127;
},
{
glyphname = unif128;
lastChange = "2013-08-16 14:26:59 +0000";
layers = (
{
layerId = "E25C3135-82A9-4CDA-9926-8EBA41D4E51C";
name = Regular;
paths = (
{
closed = 1;
nodes = (
"799 683 OFFCURVE",
"894 683 OFFCURVE",
"953 741 CURVE SMOOTH",
"1200 989 LINE",
"1447 741 LINE SMOOTH",
"1506 683 OFFCURVE",
"1601 683 OFFCURVE",
"1659 741 CURVE SMOOTH",
"1718 800 OFFCURVE",
"1718 895 OFFCURVE",
"1659 953 CURVE SMOOTH",
"1412 1201 LINE",
"1659 1448 LINE SMOOTH",
"1718 1507 OFFCURVE",
"1718 1602 OFFCURVE",
"1659 1660 CURVE SMOOTH",
"1601 1719 OFFCURVE",
"1506 1719 OFFCURVE",
"1447 1660 CURVE SMOOTH",
"1200 1413 LINE",
"953 1660 LINE SMOOTH",
"894 1719 OFFCURVE",
"799 1719 OFFCURVE",
"740 1660 CURVE SMOOTH",
"682 1602 OFFCURVE",
"682 1507 OFFCURVE",
"740 1448 CURVE SMOOTH",
"988 1201 LINE",
"740 953 LINE SMOOTH",
"682 895 OFFCURVE",
"682 800 OFFCURVE",
"740 741 CURVE SMOOTH"
);
},
{
closed = 1;
nodes = (
"483 2395 LINE SMOOTH",
"240 2395 OFFCURVE",
"-3 2146 OFFCURVE",
"-3 1897 CURVE SMOOTH",
"-4 503 LINE SMOOTH",
"-4 254 OFFCURVE",
"240 5 OFFCURVE",
"483 5 CURVE SMOOTH",
"1996 5 LINE SMOOTH",
"2239 5 OFFCURVE",
"2404 218 OFFCURVE",
"2396 505 CURVE",
"2396 1904 LINE SMOOTH",
"2396 2131 OFFCURVE",
"2239 2396 OFFCURVE",
"1944 2395 CURVE SMOOTH"
);
},
{
closed = 1;
nodes = (
"497 504 LINE",
"497 1904 LINE",
"1896 1904 LINE",
"1896 504 LINE"
);
}
);
width = 2400;
}
);
unicode = F128;
},
{
glyphname = unif129;
lastChange = "2013-08-16 15:14:31 +0000";
layers = (
{
layerId = "E25C3135-82A9-4CDA-9926-8EBA41D4E51C";
name = Regular;
paths = (
{
closed = 1;
nodes = (
"483 411 LINE",
"483 1905 LINE",
"1335 1905 LINE",
"1822 2404 LINE",
"483 2404 LINE SMOOTH",
"240 2404 OFFCURVE",
"-4 2154 OFFCURVE",
"-4 1905 CURVE SMOOTH",
"-4 504 LINE SMOOTH",
"-4 255 OFFCURVE",
"253 -4 OFFCURVE",
"496 -4 CURVE SMOOTH",
"1896 -4 LINE SMOOTH",
"2196 -4 OFFCURVE",
"2404 217 OFFCURVE",
"2396 504 CURVE",
"2396 1496 LINE",
"1944 1034 LINE",
"1944 411 LINE"
);
},
{
closed = 1;
nodes = (
"727 1283 LINE",
"1214 784 LINE",
"2396 2004 LINE",
"2396 2004 OFFCURVE",
"2152 2252 OFFCURVE",
"1909 2004 CURVE SMOOTH",
"1666 1755 OFFCURVE",
"1214 1283 OFFCURVE",
"1214 1283 CURVE",
"970 1532 LINE"
);
}
);
width = 2400;
}
);
unicode = F129;
},
